<?xml version="1.0" standalone="no"?>
<!DOCTYPE svg PUBLIC "-//W3C//DTD SVG 20010904//EN"
 "http://www.w3.org/TR/2001/REC-SVG-20010904/DTD/svg10.dtd">
<svg version="1.0" xmlns="http://www.w3.org/2000/svg"
 width="512.000000pt" height="512.000000pt" viewBox="0 0 512.000000 512.000000"
 preserveAspectRatio="xMidYMid meet">

<g transform="translate(0.000000,512.000000) scale(0.100000,-0.100000)"
fill="#000000" stroke="none">
<path d="M2498 5104 c-210 -38 -387 -160 -491 -339 -57 -96 -62 -142 -21 -174
55 -44 93 -23 145 80 83 164 259 274 472 294 l78 7 42 -44 c27 -28 51 -67 66
-107 12 -34 35 -76 50 -94 25 -27 36 -31 92 -35 53 -3 69 -9 94 -32 65 -59
121 -62 306 -18 123 29 148 32 299 32 100 0 189 -5 225 -13 124 -27 276 -160
354 -311 41 -78 41 -80 19 -80 -13 0 -49 -20 -80 -45 l-58 -45 -21 43 c-32 63
-71 116 -124 170 -63 64 -94 64 -170 1 -31 -25 -58 -44 -59 -42 -2 2 -17 30
-35 64 -18 34 -60 91 -94 128 -51 54 -68 66 -94 66 -59 0 -205 -132 -251 -227
-9 -18 -18 -33 -21 -33 -3 0 -17 19 -30 42 -29 51 -99 128 -164 180 -74 58
-97 54 -177 -31 -53 -56 -81 -98 -127 -189 -1 -2 -28 17 -60 42 -68 54 -106
59 -151 21 -39 -32 -105 -120 -140 -183 l-28 -52 -40 33 c-94 81 -122 79 -210
-15 l-67 -73 7 133 c7 132 7 132 -18 157 -32 32 -67 32 -103 1 l-28 -24 1
-204 c1 -230 24 -406 89 -673 19 -81 35 -155 35 -165 0 -13 -13 -21 -47 -29
-81 -21 -152 -61 -219 -123 -198 -186 -201 -497 -7 -691 52 -52 157 -117 188
-117 7 0 16 -20 20 -46 3 -26 9 -53 12 -60 4 -12 -78 -14 -510 -14 l-515 0 5
78 c7 93 -12 139 -79 196 -49 43 -102 60 -180 58 -119 -2 -186 -56 -251 -205
-53 -121 -118 -313 -153 -449 -23 -91 -23 -100 -9 -128 27 -52 103 -53 128 -2
8 15 22 59 31 97 38 160 162 495 188 511 29 18 36 -56 13 -132 -24 -79 -82
-380 -95 -495 l-13 -107 -65 -7 c-97 -10 -144 -28 -216 -79 -75 -53 -116 -103
-152 -181 -74 -160 -47 -342 70 -472 35 -39 44 -58 50 -101 10 -80 69 -235
123 -326 56 -93 179 -223 272 -285 108 -73 279 -150 406 -181 247 -61 575 -75
765 -33 68 15 235 17 1678 22 1572 6 1604 6 1618 25 20 28 19 336 -1 471 -20
130 -52 249 -77 280 -35 44 -106 30 -123 -25 -3 -11 5 -66 19 -122 35 -141 46
-223 46 -360 l0 -118 -436 0 -435 0 -87 36 c-385 159 -730 521 -856 898 -14
43 -26 82 -26 86 0 4 64 6 143 3 329 -12 611 84 869 294 l68 55 63 -36 c180
-100 373 -288 486 -473 49 -80 112 -89 150 -21 14 25 14 31 -5 70 -81 165
-343 431 -529 538 -30 17 -55 36 -55 41 0 5 16 29 35 55 113 148 209 382 233
568 l7 60 52 11 c246 56 413 297 374 543 -15 101 -55 184 -124 258 -63 68
-158 124 -246 144 -50 12 -53 14 -47 39 3 14 15 69 27 121 27 122 37 397 19
537 -52 419 -283 680 -685 775 -75 18 -122 22 -285 22 -188 1 -200 0 -338 -33
-174 -41 -178 -40 -216 54 -34 85 -65 131 -117 172 -116 91 -279 122 -471 87z
m534 -757 l20 -28 -23 -6 c-13 -4 -57 -24 -98 -45 -41 -21 -76 -38 -77 -38
-11 0 32 103 61 147 l37 55 30 -28 c16 -16 39 -42 50 -57z m518 -18 c16 -31
30 -66 30 -77 0 -19 -5 -17 -72 17 -40 21 -83 40 -96 44 -20 5 -22 8 -12 26 6
12 27 37 47 57 l36 36 18 -23 c10 -13 32 -49 49 -80z m-917 -119 c25 -28 53
-70 62 -94 17 -43 17 -44 -14 -103 -16 -34 -35 -82 -42 -107 l-12 -47 -46 3
c-44 3 -47 5 -68 48 -32 64 -40 157 -19 212 18 46 77 138 88 138 3 0 26 -23
51 -50z m1266 -4 c16 -23 37 -66 46 -94 15 -46 16 -61 5 -115 -6 -34 -21 -78
-31 -99 -18 -35 -23 -38 -63 -38 l-45 0 -15 53 c-8 28 -27 75 -41 102 -30 61
-31 70 -4 120 24 47 99 126 111 119 4 -3 21 -24 37 -48z m-587 -27 c151 -32
291 -156 333 -296 l6 -23 -430 0 c-354 0 -431 2 -431 13 0 8 14 42 31 76 89
177 291 272 491 230z m-1054 -136 c47 -58 68 -96 77 -146 l7 -37 -116 0 -116
0 0 38 c1 56 71 192 100 192 4 0 26 -21 48 -47z m2001 16 c35 -48 71 -131 71
-166 l0 -33 -115 0 -115 0 0 27 c0 15 9 46 20 69 21 42 95 134 109 134 4 0 17
-14 30 -31z m207 -366 c-3 -10 -8 -45 -11 -78 -4 -33 -10 -76 -15 -95 -4 -19
-11 -47 -14 -63 l-6 -27 -1137 2 -1137 3 -14 55 c-7 30 -22 92 -32 138 l-18
82 1195 0 c1133 0 1194 -1 1189 -17z m-56 -852 c0 -474 -4 -529 -56 -693 -149
-471 -618 -799 -1109 -774 -123 6 -244 29 -350 66 -48 17 -65 18 -86 9 -35
-14 -53 -56 -40 -92 11 -29 31 -41 104 -66 l51 -17 23 -94 c90 -357 364 -721
711 -946 28 -18 52 -36 52 -39 0 -3 -332 -5 -737 -4 l-738 0 40 32 c184 148
302 310 368 509 113 338 77 901 -89 1412 -55 168 -127 337 -162 378 -34 40
-110 76 -176 84 l-56 7 0 333 0 334 1125 0 1125 0 0 -439z m243 317 c60 -30
124 -95 154 -157 24 -48 28 -68 28 -141 0 -94 -19 -150 -74 -218 -33 -42 -120
-97 -168 -107 l-33 -7 0 331 0 331 28 -6 c15 -4 44 -16 65 -26z m-2643 -301
c0 -178 -3 -326 -6 -330 -3 -3 -26 2 -52 11 -63 23 -145 101 -179 170 -24 49
-28 69 -28 142 0 101 20 154 87 226 36 40 142 104 171 104 4 0 7 -146 7 -323z
m178 -554 c95 -242 146 -436 186 -708 85 -574 6 -945 -255 -1207 -86 -86 -203
-167 -276 -191 -84 -27 -203 -40 -363 -40 -258 1 -463 40 -639 124 -204 97
-328 212 -411 383 -77 158 -92 142 136 137 l197 -3 46 -30 c25 -16 78 -38 116
-49 39 -12 93 -31 122 -44 170 -78 503 -94 701 -34 204 62 356 221 417 434 84
292 69 720 -41 1167 -32 130 -33 143 -19 164 9 13 19 24 24 24 5 0 31 -57 59
-127z m-180 -241 c7 -32 12 -64 12 -70 0 -9 -138 -12 -581 -12 -548 0 -580 1
-575 18 2 9 7 33 11 52 14 78 -48 70 569 70 l552 0 12 -58z m-898 -358 l0
-126 -22 16 c-69 49 -167 86 -230 86 l-38 0 6 63 c3 34 7 68 10 75 2 9 39 12
139 12 l135 0 0 -126z m520 -121 l0 -247 -44 -55 c-100 -129 -189 -289 -241
-436 -16 -44 -29 -81 -31 -83 -1 -2 -13 0 -28 4 l-26 6 0 529 0 529 185 0 185
0 0 -247z m425 176 c6 -56 4 -74 -6 -80 -60 -35 -159 -102 -209 -142 l-60 -48
0 170 0 171 134 0 134 0 7 -71z m-1108 -252 c91 -49 151 -139 160 -237 11
-114 -44 -218 -145 -278 l-47 -27 -243 -3 c-202 -3 -251 -1 -291 13 -158 52
-234 247 -156 400 32 63 100 124 159 143 19 6 130 10 281 9 218 -2 254 -4 282
-20z m1118 -69 c-8 -105 -24 -225 -37 -283 -16 -73 -70 -184 -113 -233 -33
-38 -114 -102 -129 -102 -3 0 -6 105 -6 233 l0 233 43 40 c84 80 219 184 239
184 5 0 6 -33 3 -72z m-440 -666 c-7 -7 -155 -16 -155 -8 0 15 80 188 115 251
l40 70 3 -154 c1 -85 0 -156 -3 -159z m-518 51 c-7 -6 -67 25 -67 35 0 4 15
16 33 28 l32 21 3 -39 c2 -22 1 -42 -1 -45z"/>
<path d="M2635 3134 c-11 -2 -43 -9 -72 -15 -99 -20 -133 -80 -77 -136 20 -20
32 -24 57 -19 155 27 188 30 284 18 90 -11 100 -10 123 7 20 15 25 27 25 62 0
41 -3 45 -37 62 -28 14 -68 19 -160 22 -68 2 -132 2 -143 -1z"/>
<path d="M3725 3130 c-93 -15 -132 -75 -86 -131 18 -22 25 -24 83 -19 110 8
251 4 305 -9 66 -16 91 -8 109 35 35 83 -39 123 -236 129 -63 2 -142 0 -175
-5z"/>
<path d="M2833 2869 c-48 -14 -83 -62 -83 -114 0 -105 126 -158 199 -84 88 88
4 232 -116 198z"/>
<path d="M3663 2864 c-50 -25 -67 -60 -64 -133 1 -13 17 -38 37 -57 29 -28 43
-34 79 -34 127 0 165 170 50 224 -41 20 -61 20 -102 0z"/>
<path d="M3053 2180 c-12 -5 -26 -18 -32 -29 -30 -56 4 -105 109 -155 58 -28
75 -31 155 -31 76 0 99 4 145 26 84 39 130 84 130 124 0 24 -7 39 -26 54 -37
29 -56 26 -117 -13 -90 -60 -176 -60 -268 -1 -57 37 -62 39 -96 25z"/>
</g>
</svg>
